<svg width="550" height="200" fill="none" xmlns="http://www.w3.org/2000/svg"><path d="M262.733 150.428c18.368 0 30.074-10.897 31.311-26.41H277.58c-1.476 7.851-7.138 12.372-14.704 12.372-10.755 0-17.702-8.994-17.702-23.935 0-14.752 7.09-23.603 17.702-23.603 8.28 0 13.371 5.33 14.704 12.372h16.464c-1.19-15.845-13.562-26.267-31.406-26.267-21.414 0-34.928 15.466-34.928 37.783 0 22.127 13.181 37.688 35.023 37.688Zm66.424 0c17.035 0 28.741-8.328 31.787-21.033l-16.084-1.808c-2.332 6.186-8.042 9.422-15.465 9.422-11.135 0-18.511-7.329-18.654-19.844h50.916v-5.281c0-25.649-15.417-36.927-33.404-36.927-20.938 0-34.595 15.37-34.595 37.926 0 22.936 13.467 37.545 35.499 37.545Zm-18.368-44.873c.523-9.327 7.423-17.179 17.702-17.179 9.897 0 16.559 7.233 16.654 17.179h-34.356Zm90.549-29.646H386.92V58.398h-17.226v17.511H359.32v13.324h10.374v40.638c-.095 13.752 9.898 20.509 22.841 20.128 4.901-.142 8.28-1.094 10.136-1.713l-2.903-13.466c-.952.238-2.903.666-5.044.666-4.33 0-7.804-1.523-7.804-8.47V89.233h14.418V75.909Zm49.603 42.351c0 11.135-7.947 16.655-15.561 16.655-8.28 0-13.799-5.853-13.799-15.132V75.909h-17.226v46.538c0 17.559 9.993 27.505 24.363 27.505 10.945 0 18.654-5.758 21.985-13.943h.761V149h16.702V75.91h-17.225v42.35Zm23.549 58.149h17.226v-38.925h.714c2.712 5.33 8.375 12.801 20.937 12.801 17.226 0 30.122-13.657 30.122-37.735 0-24.364-13.277-37.593-30.169-37.593-12.896 0-18.273 7.757-20.89 13.039h-1V75.909h-16.94v100.5Zm16.893-63.954c0-14.18 6.091-23.365 17.178-23.365 11.468 0 17.369 9.755 17.369 23.365 0 13.704-5.996 23.697-17.369 23.697-10.992 0-17.178-9.517-17.178-23.697Z" fill="#2C559A"/><path d="M4 50C4 24.595 24.595 4 50 4h146v146c0 25.405-20.595 46-46 46H4V50Z" fill="#9FD069" stroke="#2C559A" stroke-width="8"/><path fill-rule="evenodd" clip-rule="evenodd" d="M83 118H48V48h70v35h35v70H83v-35ZM56 56h54v27H83v27H56V56Zm89 35v54H91V91h54Z" fill="#2C559A"/></svg>